<svg width="30" height="21" viewBox="0 0 30 21" fill="none" xmlns="http://www.w3.org/2000/svg">
<path fill-rule="evenodd" clip-rule="evenodd" d="M9.84094 0.12227C9.72792 0.189562 8.22917 1.72902 6.51042 3.54335L3.38542 6.84221L1.92427 6.84274C0.14573 6.84335 0 6.89617 0 7.53934C0 8.02468 0.137812 8.16295 0.697708 8.23963L1.07187 8.29087L2.50708 13.1162C3.33406 15.8968 4.045 18.1074 4.18469 18.3329C4.49031 18.8264 5.32656 19.5507 5.9375 19.8513C6.95625 20.3525 6.98833 20.3542 15 20.3542C23.0131 20.3542 23.0455 20.3524 24.0622 19.8507C24.6425 19.5643 25.4071 18.9119 25.7517 18.409C25.9311 18.147 26.459 16.5153 27.4539 13.1466L28.8958 8.26384L29.2859 8.21129C29.7603 8.14742 30 7.8894 30 7.44283C30 6.91064 29.7877 6.84397 28.0757 6.83905L26.6146 6.83484L23.9583 3.98017C20.1388 -0.124787 20.267 -3.00915e-05 19.8675 0.000496309C19.6368 0.000759509 19.425 0.0847207 19.1927 0.268084C18.5521 0.773779 18.5519 0.77334 21.5197 3.9335C22.985 5.49375 24.1642 6.78694 24.14 6.80729C24.1158 6.82756 19.9939 6.83414 14.9801 6.82177L5.86406 6.7994L7.84052 4.6938C8.9276 3.53571 10.1395 2.23884 10.5335 1.81193C11.3771 0.897921 11.4356 0.659375 10.9143 0.258345C10.5492 -0.0225773 10.1659 -0.0710941 9.84094 0.12227ZM8.06792 10.1258C8.26198 10.1942 8.47136 10.3297 8.53333 10.4272C8.60833 10.5453 8.64583 11.7299 8.64583 13.9811V17.3578L8.37615 17.6277C8.04313 17.9611 7.4725 17.9988 7.04531 17.7158L6.77083 17.534V14.0025V10.471L7.00521 10.2914C7.22458 10.1232 7.44333 10.0247 7.63354 10.0086C7.67833 10.0048 7.87385 10.0576 8.06792 10.1258ZM12.0573 10.2917L12.2917 10.471V13.969V17.467L12.0359 17.6823C11.8478 17.8408 11.6677 17.8977 11.3542 17.8977C11.0406 17.8977 10.8605 17.8408 10.6724 17.6823L10.4167 17.467V14.0093C10.4167 10.6732 10.4241 10.5438 10.6271 10.3265C10.9629 9.96684 11.6119 9.95105 12.0573 10.2917ZM15.4043 10.0989C16.0316 10.2831 16.0417 10.3456 16.0417 14.0398V17.3848L15.7372 17.6412C15.3454 17.9712 14.8249 17.9887 14.4069 17.686L14.1146 17.4744L14.0849 14.1145C14.0525 10.4427 14.0676 10.3314 14.6272 10.1262C15.0244 9.98053 15.0035 9.98123 15.4043 10.0989ZM19.0501 10.0989C19.6774 10.2831 19.6875 10.3456 19.6875 14.0398V17.3848L19.383 17.6412C18.9913 17.9712 18.4707 17.9887 18.0527 17.686L17.7604 17.4744L17.7282 14.1986C17.6924 10.543 17.7205 10.3284 18.2617 10.1302C18.6716 9.98008 18.6484 9.98096 19.0501 10.0989ZM23.099 10.3223L23.3333 10.5379V14.0024V17.467L23.0776 17.6823C22.8895 17.8408 22.7094 17.8977 22.3958 17.8977C22.0823 17.8977 21.9022 17.8408 21.7141 17.6823L21.4583 17.467V13.969V10.471L21.6927 10.2889C22.127 9.95166 22.711 9.96561 23.099 10.3223Z" fill="black"/>
</svg>
