<svg width="40" height="40" viewBox="0 0 40 40" fill="none" xmlns="http://www.w3.org/2000/svg">
<path d="M20 0C8.97287 0 0 8.97094 0 20C0 31.0291 8.97287 40 20 40C31.0271 40 40 31.0291 40 20C40 8.97094 31.0271 0 20 0ZM20 38.6678C9.70752 38.6678 1.33458 30.2931 1.33458 20C1.33458 9.70687 9.70752 1.33217 20 1.33217C30.2925 1.33217 38.6654 9.70687 38.6654 20C38.6654 30.2931 30.2925 38.6678 20 38.6678Z" fill="white"/>
<path d="M24.3665 8.77397H21.0387C16.8005 8.73156 16.2592 11.3547 16.2592 14.1937V16.2581H14.3883C14.3037 16.2468 14.2177 16.2551 14.1369 16.2825C14.0561 16.3098 13.9827 16.3554 13.9223 16.4158C13.862 16.4761 13.8164 16.5495 13.7891 16.6303C13.7617 16.7111 13.7534 16.7972 13.7647 16.8817V20.6238C13.7534 20.7084 13.7617 20.7944 13.7891 20.8752C13.8164 20.956 13.862 21.0294 13.9223 21.0898C13.9827 21.1501 14.0561 21.1957 14.1369 21.2231C14.2177 21.2504 14.3037 21.2588 14.3883 21.2475H16.2592V30.6026C16.2488 30.6873 16.2579 30.7733 16.2858 30.8539C16.3137 30.9346 16.3597 31.0078 16.4202 31.068C16.4808 31.1282 16.5543 31.1737 16.6351 31.2011C16.7159 31.2286 16.8019 31.2372 16.8866 31.2263H20.697C21.0649 31.2687 21.363 30.9705 21.2458 30.6026L21.2483 21.2475H24.3665C24.451 21.2588 24.537 21.2504 24.6179 21.2231C24.6987 21.1957 24.7721 21.1501 24.8324 21.0898C24.8927 21.0294 24.9383 20.956 24.9657 20.8752C24.993 20.7944 25.0014 20.7084 24.9901 20.6238V16.8817C25.0014 16.7972 24.993 16.7111 24.9657 16.6303C24.9383 16.5495 24.8927 16.4761 24.8324 16.4158C24.7721 16.3554 24.6987 16.3098 24.6179 16.2825C24.537 16.2551 24.451 16.2468 24.3665 16.2581H21.2445L21.2483 14.387C21.3693 13.59 21.3693 13.7197 22.1089 13.7634H24.3403C24.5136 13.7247 24.6982 13.7459 24.828 13.6199C24.9577 13.4939 25.0325 13.3218 24.9888 13.1397V9.39764C25.0004 9.31314 24.9922 9.22713 24.965 9.1463C24.9378 9.06547 24.8923 8.99201 24.8321 8.93165C24.7719 8.87128 24.6985 8.82565 24.6177 8.7983C24.537 8.77095 24.451 8.76262 24.3665 8.77397ZM23.6992 12.4462L22.1351 12.3863C20.1981 12.3863 20.0359 13.4378 20.0359 14.5143L20.0309 16.8792C20.0308 16.9668 20.0479 17.0536 20.0813 17.1345C20.1147 17.2155 20.1637 17.2891 20.2256 17.351C20.2874 17.413 20.3609 17.4622 20.4418 17.4958C20.5227 17.5293 20.6094 17.5466 20.697 17.5466H23.7428V19.9565H20.6995C20.5227 19.9565 20.3532 20.0266 20.2281 20.1515C20.103 20.2763 20.0325 20.4458 20.0322 20.6225L20.0309 29.9789H17.5065V20.6238C17.5065 20.2558 17.2558 19.9577 16.8866 19.9577H15.0119V17.5478H16.8866C16.9741 17.548 17.0608 17.5308 17.1417 17.4974C17.2226 17.4641 17.2961 17.4151 17.358 17.3532C17.4828 17.2273 17.5052 17.0576 17.5052 16.8805V14.1925C17.5052 11.3959 18.0702 10.0637 21.0375 10.0637H23.6979V12.4462H23.6992Z" fill="white"/>
</svg>
