<svg width="40" height="40" viewBox="0 0 40 40" fill="none" xmlns="http://www.w3.org/2000/svg">
<path d="M20 0C8.97287 0 0 8.97094 0 20C0 31.0291 8.97287 40 20 40C31.0271 40 40 31.0291 40 20C40 8.97094 31.0271 0 20 0ZM20 38.6678C9.70752 38.6678 1.33458 30.2931 1.33458 20C1.33458 9.70687 9.70752 1.33217 20 1.33217C30.2925 1.33217 38.6654 9.70687 38.6654 20C38.6654 30.2931 30.2925 38.6678 20 38.6678Z" fill="white"/>
<path d="M23.9209 11.1689L24.1641 11.1748C25.3773 11.2363 26.5285 11.7453 27.3916 12.6084C28.3122 13.5291 28.8296 14.778 28.8311 16.0801V23.9199C28.8296 25.222 28.3122 26.4709 27.3916 27.3916C26.4711 28.3122 25.2227 28.8295 23.9209 28.8311H16.0801C14.7782 28.8295 13.5299 28.3122 12.6094 27.3916C11.6887 26.4709 11.1714 25.222 11.1699 23.9199V16.0801C11.1714 14.778 11.6887 13.5291 12.6094 12.6084C13.5299 11.6878 14.7782 11.1705 16.0801 11.1689H23.9209ZM16.0801 12.4375C15.1147 12.4387 14.1895 12.8232 13.5068 13.5059C12.8241 14.1887 12.4396 15.1144 12.4385 16.0801V23.9199C12.4396 24.8856 12.8241 25.8113 13.5068 26.4941C14.1895 27.1768 15.1147 27.5613 16.0801 27.5625H23.9199C24.8855 27.5614 25.8114 27.1769 26.4941 26.4941C27.1769 25.8113 27.5614 24.8856 27.5625 23.9199V16.0801C27.5614 15.1144 27.1769 14.1887 26.4941 13.5059C25.8114 12.8231 24.8855 12.4386 23.9199 12.4375H16.0801ZM20.001 15.8018C21.1138 15.8031 22.1809 16.2453 22.9678 17.0322C23.7548 17.8193 24.197 18.8869 24.1982 20L24.1875 20.3105C24.134 21.0316 23.8948 21.7289 23.4912 22.333C23.03 23.0232 22.3743 23.5612 21.6074 23.8789C20.8404 24.1966 19.9959 24.2801 19.1816 24.1182C18.3674 23.9562 17.6193 23.5558 17.0322 22.9688C16.4452 22.3816 16.0448 21.6337 15.8828 20.8193C15.7208 20.005 15.8044 19.1607 16.1221 18.3936C16.4398 17.6264 16.9776 16.9701 17.668 16.5088C18.3582 16.0476 19.1699 15.8018 20 15.8018H20.001ZM21.1211 17.2939C20.5859 17.0723 19.9969 17.0139 19.4287 17.127C18.8607 17.24 18.3392 17.5192 17.9297 17.9287C17.52 18.3384 17.2409 18.8605 17.1279 19.4287C17.0149 19.9969 17.0723 20.5859 17.2939 21.1211C17.5156 21.6563 17.8914 22.1137 18.373 22.4355C18.8546 22.7573 19.4208 22.9296 20 22.9297C20.7765 22.9288 21.5212 22.6194 22.0703 22.0703C22.6194 21.5212 22.9288 20.7766 22.9297 20L22.9219 19.7832C22.8846 19.2803 22.7171 18.7944 22.4355 18.373C22.1137 17.8913 21.6563 17.5157 21.1211 17.2939ZM24.6328 14.376C24.8955 14.3763 25.1482 14.4812 25.334 14.667C25.5195 14.8527 25.6237 15.1047 25.624 15.3672C25.624 15.5631 25.5659 15.7551 25.457 15.918C25.3482 16.0807 25.1935 16.2072 25.0127 16.2822C24.8316 16.3572 24.6317 16.3771 24.4395 16.3389C24.2474 16.3006 24.0711 16.2059 23.9326 16.0674C23.7941 15.9289 23.6994 15.7527 23.6611 15.5605C23.6229 15.3683 23.6428 15.1684 23.7178 14.9873C23.7928 14.8064 23.9202 14.6518 24.083 14.543C24.2458 14.4343 24.4371 14.376 24.6328 14.376Z" fill="white" stroke="white" stroke-width="0.2"/>
</svg>
