<svg width="117" height="45" viewBox="0 0 117 45" fill="none" xmlns="http://www.w3.org/2000/svg">
<path d="M17.5895 26.4427C20.0071 26.4427 21.967 24.4815 21.967 22.0622C21.967 19.6429 20.0071 17.6816 17.5895 17.6816C15.1718 17.6816 13.2119 19.6429 13.2119 22.0622C13.2119 24.4815 15.1718 26.4427 17.5895 26.4427Z" fill="#1C1C1C"/>
<path d="M75.6119 8.76106C78.0296 8.76106 79.9895 6.79983 79.9895 4.38053C79.9895 1.96123 78.0296 0 75.6119 0C73.1943 0 71.2344 1.96123 71.2344 4.38053C71.2344 6.79983 73.1943 8.76106 75.6119 8.76106Z" fill="#1C1C1C"/>
<path d="M112.623 44.9998C115.04 44.9998 117 43.0386 117 40.6193C117 38.2 115.04 36.2388 112.623 36.2388C110.205 36.2388 108.245 38.2 108.245 40.6193C108.245 43.0386 110.205 44.9998 112.623 44.9998Z" fill="#1C1C1C"/>
<path d="M30.8024 45H30.5636C28.335 45 26.584 43.2478 26.584 41.0177V3.9823C26.584 1.75221 28.335 0 30.5636 0H30.8024C33.0309 0 34.7819 1.75221 34.7819 3.9823V41.0177C34.7819 43.1681 32.9513 45 30.8024 45Z" fill="#1C1C1C"/>
<path d="M4.21837 45H3.97959C1.75102 45 0 43.2478 0 41.0177V3.9823C0 1.75221 1.75102 0 3.97959 0H4.21837C6.44694 0 8.19796 1.75221 8.19796 3.9823V41.0177C8.19796 43.1681 6.44694 45 4.21837 45Z" fill="#1C1C1C"/>
<path d="M95.0328 45H94.794C92.5655 45 90.8145 43.2478 90.8145 41.0177V3.9823C90.8145 1.75221 92.5655 0 94.794 0H95.0328C97.2614 0 99.0124 1.75221 99.0124 3.9823V41.0177C99.0124 43.1681 97.2614 45 95.0328 45Z" fill="#1C1C1C"/>
<path d="M62.6387 44.9204H62.3999C60.1713 44.9204 58.4203 43.1681 58.4203 40.9381V7.08849H47.0387C47.0387 7.08849 43.6162 7.16814 43.6162 3.58407C43.6162 0 46.7203 0 46.7203 0H62.6387C64.8672 0 66.6182 1.75221 66.6182 3.9823V41.0177C66.6182 43.1681 64.8672 44.9204 62.6387 44.9204Z" fill="#1C1C1C"/>
</svg>
