<svg width="26" height="26" viewBox="0 0 26 26" fill="none" xmlns="http://www.w3.org/2000/svg">
<path d="M21.6125 22.75C21.9375 22.75 22.2083 22.6417 22.425 22.425C22.6417 22.2083 22.75 21.9375 22.75 21.6125V17.225C22.75 16.9722 22.6688 16.7509 22.5063 16.5609C22.3438 16.3717 22.1361 16.25 21.8833 16.1958L18.1458 15.4375C17.8931 15.4014 17.6356 15.4238 17.3734 15.5047C17.112 15.5863 16.9 15.7083 16.7375 15.8708L14.1917 18.4167C12.8194 17.5861 11.5599 16.6021 10.413 15.4646C9.26683 14.3271 8.31458 13.1083 7.55625 11.8083L10.1833 9.15417C10.3458 8.99167 10.4498 8.80642 10.4953 8.59842C10.5401 8.39114 10.5444 8.16111 10.5083 7.90833L9.80417 4.11667C9.76805 3.86389 9.65069 3.65625 9.45208 3.49375C9.25347 3.33125 9.02778 3.25 8.775 3.25H4.3875C4.0625 3.25 3.79167 3.35833 3.575 3.575C3.35833 3.79167 3.25 4.0625 3.25 4.3875C3.25 6.71667 3.76928 8.98697 4.80783 11.1984C5.84566 13.4106 7.21789 15.3696 8.9245 17.0755C10.6304 18.7821 12.5891 20.1543 14.8005 21.1922C17.0127 22.2307 19.2833 22.75 21.6125 22.75ZM6.52708 9.75C6.22014 9.04583 5.98542 8.33264 5.82292 7.61042C5.66042 6.88819 5.53403 6.15694 5.44375 5.41667H7.85417L8.31458 7.9625L6.52708 9.75ZM16.2229 19.4458L18.0375 17.6313L20.5833 18.1458V20.5292C19.8431 20.475 19.1071 20.3576 18.3755 20.1771C17.6446 19.9965 16.9271 19.7528 16.2229 19.4458Z" fill="black"/>
</svg>
