<svg width="33" height="31" viewBox="0 0 33 31" fill="none" xmlns="http://www.w3.org/2000/svg">
<path d="M7.75 15.125C7.75 16.9484 8.51823 18.697 9.88568 19.9864C11.2531 21.2757 13.1078 22 15.0417 22V8.25C13.1078 8.25 11.2531 8.97433 9.88568 10.2636C8.51823 11.553 7.75 13.3016 7.75 15.125Z" fill="black"/>
<path d="M16.0417 0.000157699C12.8689 0.000157699 9.76744 0.887223 7.1294 2.54918C4.49136 4.21114 2.43526 6.57334 1.22111 9.33707C0.00695066 12.1008 -0.310728 15.1419 0.308243 18.0759C0.927215 21.0099 2.45504 23.7049 4.6985 25.8202C6.94197 27.9354 9.80032 29.3759 12.9121 29.9595C16.0239 30.5431 19.2493 30.2436 22.1806 29.0988C25.1118 27.9541 27.6172 26.0155 29.3798 23.5282C31.1425 21.0409 32.0833 18.1166 32.0833 15.1252C32.093 13.1364 31.6847 11.1655 30.8819 9.32632C30.0792 7.48716 28.8979 5.81618 27.4064 4.40987C25.9148 3.00357 24.1426 1.88982 22.192 1.13294C20.2413 0.376062 18.151 -0.00894446 16.0417 0.000157699ZM2.91667 15.1252C2.93582 11.8487 4.32478 8.71152 6.78205 6.39466C9.23933 4.0778 12.5666 2.76821 16.0417 2.75016V8.25016C17.9755 8.25016 19.8302 8.97449 21.1977 10.2638C22.5651 11.5531 23.3333 13.3018 23.3333 15.1252C23.3333 16.9485 22.5651 18.6972 21.1977 19.9865C19.8302 21.2758 17.9755 22.0002 16.0417 22.0002V27.5002C12.5666 27.4821 9.23933 26.1725 6.78205 23.8557C4.32478 21.5388 2.93582 18.4016 2.91667 15.1252Z" fill="black"/>
</svg>
