<svg width="40" height="40" viewBox="0 0 40 40" fill="none" xmlns="http://www.w3.org/2000/svg">
<g clip-path="url(#clip0_1418_314)">
<path d="M19.9998 -0.0424805C8.94855 -0.0424805 -0.0439453 8.94752 -0.0439453 20C-0.0439453 31.0525 8.94855 40.0425 19.9998 40.0425C31.0511 40.0425 40.0436 31.0525 40.0436 20C40.0436 8.94752 31.0511 -0.0424805 19.9998 -0.0424805ZM19.9998 38.7075C9.6848 38.7075 1.29355 30.315 1.29355 20C1.29355 9.68502 9.6848 1.29252 19.9998 1.29252C30.3148 1.29252 38.7061 9.68502 38.7061 20C38.7061 30.315 30.3148 38.7075 19.9998 38.7075Z" fill="white"/>
<path d="M30.9919 13.8075C31.1305 13.5509 31.2448 13.2818 31.3331 13.0038C31.374 12.8748 31.3749 12.7365 31.3355 12.6071C31.2961 12.4776 31.2185 12.3632 31.1127 12.2788C31.0069 12.1944 30.8781 12.1441 30.7431 12.1345C30.6082 12.1249 30.4735 12.1565 30.3569 12.225C29.7164 12.6055 29.023 12.889 28.2994 13.0663C27.421 12.2735 26.2801 11.834 25.0969 11.8325C24.454 11.833 23.8179 11.9633 23.2266 12.2156C22.6353 12.4679 22.1011 12.837 21.6559 13.3007C21.2107 13.7645 20.8637 14.3133 20.6358 14.9144C20.4079 15.5155 20.3036 16.1564 20.3294 16.7988C17.5181 16.4449 14.951 15.0223 13.1606 12.8263C13.092 12.7431 13.0044 12.6777 12.9051 12.6356C12.8058 12.5935 12.6978 12.576 12.5903 12.5846C12.4828 12.5932 12.379 12.6276 12.2877 12.6849C12.1963 12.7422 12.1201 12.8207 12.0656 12.9138C11.6557 13.6174 11.4328 14.4144 11.4184 15.2286C11.4039 16.0429 11.5984 16.8473 11.9831 17.565C11.8888 17.5809 11.7981 17.614 11.7156 17.6625C11.6146 17.727 11.5314 17.8158 11.4737 17.9209C11.416 18.026 11.3857 18.1439 11.3856 18.2638C11.3856 19.6825 12.0169 20.985 13.0344 21.87L12.9906 21.9138C12.9138 22.0007 12.861 22.1061 12.8373 22.2196C12.8136 22.3332 12.8199 22.4509 12.8556 22.5613C13.0678 23.2232 13.4221 23.8307 13.8936 24.3414C14.3652 24.852 14.9427 25.2534 15.5856 25.5175C14.2651 26.1617 12.7873 26.4129 11.3281 26.2413C11.1781 26.226 11.0273 26.2609 10.8993 26.3405C10.7712 26.4201 10.6732 26.54 10.6206 26.6813C10.5701 26.8236 10.5692 26.9788 10.6179 27.1218C10.6667 27.2647 10.7624 27.387 10.8894 27.4688C12.8731 28.742 15.1809 29.4184 17.5381 29.4175C25.2631 29.4175 29.8806 23.1425 29.8806 17.0763L29.8794 16.8713C30.628 16.2868 31.2783 15.5863 31.8056 14.7963C31.8855 14.6768 31.9247 14.5349 31.9176 14.3914C31.9105 14.2479 31.8573 14.1105 31.766 13.9996C31.6748 13.8887 31.5502 13.8101 31.4107 13.7755C31.2713 13.7409 31.1244 13.7521 30.9919 13.8075ZM28.8106 16.0013C28.7199 16.0665 28.647 16.1534 28.5985 16.2541C28.5501 16.3547 28.5276 16.4659 28.5331 16.5775C28.5406 16.7425 28.5444 16.91 28.5444 17.075C28.5444 22.485 24.4281 28.0813 17.5394 28.0813C16.3108 28.0818 15.0908 27.8756 13.9306 27.4713C15.3201 27.205 16.6254 26.6091 17.7369 25.7338C17.8451 25.6485 17.9243 25.5318 17.9637 25.3998C18.0031 25.2678 18.0007 25.1268 17.9569 24.9961C17.9131 24.8655 17.8301 24.7516 17.7191 24.6699C17.6081 24.5883 17.4746 24.5429 17.3369 24.54C16.7979 24.5297 16.2689 24.3929 15.7925 24.1406C15.3162 23.8883 14.9057 23.5276 14.5944 23.0875C14.9106 23.0663 15.2206 23.0138 15.5219 22.9325C15.6677 22.8935 15.7959 22.8062 15.8858 22.6849C15.9756 22.5636 16.0216 22.4155 16.0164 22.2646C16.0112 22.1138 15.955 21.9692 15.857 21.8544C15.759 21.7396 15.625 21.6614 15.4769 21.6325C14.8682 21.5087 14.3046 21.2217 13.8464 20.8023C13.3882 20.3828 13.0526 19.8467 12.8756 19.2513C13.2081 19.335 13.5494 19.3838 13.8906 19.395C14.1844 19.3938 14.4569 19.2138 14.5481 18.9313C14.6394 18.6488 14.5319 18.3375 14.2831 18.1725C13.695 17.7807 13.2421 17.2168 12.9864 16.5579C12.7307 15.8991 12.6846 15.1773 12.8544 14.4913C15.0257 16.7192 17.9576 18.0458 21.0644 18.2063C21.2844 18.2075 21.4769 18.1288 21.6106 17.9675C21.7444 17.8063 21.7956 17.5925 21.7481 17.3875C21.5772 16.6513 21.6536 15.8792 21.9657 15.1908C22.2778 14.5024 22.808 13.936 23.4744 13.5793C24.1408 13.2226 24.9062 13.0955 25.6521 13.2177C26.398 13.3398 27.0828 13.7044 27.6006 14.255C27.6782 14.3378 27.7756 14.3995 27.8837 14.4343C27.9917 14.4691 28.1068 14.4758 28.2181 14.4538C28.4244 14.4125 28.6281 14.365 28.8294 14.31C28.7387 14.3779 28.6444 14.4409 28.5469 14.4988C28.4173 14.5782 28.3186 14.6994 28.267 14.8424C28.2155 14.9854 28.2142 15.1417 28.2635 15.2855C28.3127 15.4293 28.4094 15.5521 28.5377 15.6336C28.666 15.7151 28.8183 15.7504 28.9694 15.7338L29.1969 15.705C29.0716 15.8082 28.9428 15.907 28.8106 16.0013Z" fill="white"/>
</g>
<defs>
<clipPath id="clip0_1418_314">
<rect width="40" height="40" fill="white"/>
</clipPath>
</defs>
</svg>
