<svg width="26" height="26" viewBox="0 0 26 26" fill="none" xmlns="http://www.w3.org/2000/svg">
<path d="M13 2.16699C11.9287 2.16699 10.8814 2.48467 9.99066 3.07987C9.0999 3.67506 8.40563 4.52102 7.99565 5.51079C7.58568 6.50056 7.47841 7.58967 7.68741 8.6404C7.89642 9.69113 8.4123 10.6563 9.16984 11.4138C9.92737 12.1714 10.8925 12.6872 11.9433 12.8962C12.994 13.1053 14.0831 12.998 15.0729 12.588C16.0626 12.178 16.9086 11.4838 17.5038 10.593C18.099 9.70223 18.4167 8.65497 18.4167 7.58366C18.4167 6.14707 17.846 4.76932 16.8302 3.7535C15.8143 2.73768 14.4366 2.16699 13 2.16699ZM13 10.8337C12.3572 10.8337 11.7289 10.6431 11.1944 10.2859C10.6599 9.92882 10.2434 9.42124 9.99739 8.82738C9.75141 8.23352 9.68705 7.58005 9.81245 6.94962C9.93785 6.31918 10.2474 5.74008 10.7019 5.28556C11.1564 4.83104 11.7355 4.52151 12.366 4.39611C12.9964 4.2707 13.6499 4.33507 14.2437 4.58105C14.8376 4.82704 15.3452 5.2436 15.7023 5.77806C16.0594 6.31252 16.25 6.94087 16.25 7.58366C16.25 8.44561 15.9076 9.27226 15.2981 9.88176C14.6886 10.4913 13.862 10.8337 13 10.8337ZM22.75 22.7503V21.667C22.75 19.6558 21.951 17.7269 20.5289 16.3048C19.1067 14.8826 17.1779 14.0837 15.1667 14.0837H10.8333C8.82211 14.0837 6.89326 14.8826 5.47111 16.3048C4.04896 17.7269 3.25 19.6558 3.25 21.667V22.7503H5.41667V21.667C5.41667 20.2304 5.98735 18.8527 7.00317 17.8368C8.01899 16.821 9.39674 16.2503 10.8333 16.2503H15.1667C16.6033 16.2503 17.981 16.821 18.9968 17.8368C20.0127 18.8527 20.5833 20.2304 20.5833 21.667V22.7503H22.75Z" fill="#1C1C1C"/>
</svg>
