<svg width="51" height="28" viewBox="0 0 51 28" fill="none" xmlns="http://www.w3.org/2000/svg">
<path fill-rule="evenodd" clip-rule="evenodd" d="M20.6599 0.304971C15.3391 1.32938 10.0365 4.11858 4.91501 8.58727C3.12787 10.1463 0 13.5793 0 13.9815C0 14.3837 3.12787 17.8167 4.91501 19.3758C10.1371 23.9323 15.2601 26.6006 20.8504 27.6759C23.7356 28.2306 29.0658 28.0512 31.8309 27.3061C36.0197 26.177 39.8745 24.2324 43.6496 21.3438C45.8709 19.6442 49.1563 16.4739 50.304 14.9224L51 13.9815L50.304 13.0407C49.1563 11.4891 45.8709 8.31882 43.6496 6.61925C39.9292 3.77259 36.0062 1.79127 31.8275 0.648697C29.3097 -0.0397595 23.3958 -0.221909 20.6599 0.304971ZM28.8635 4.86324C31.447 5.85452 33.8447 8.49319 34.6143 11.1923C35.18 13.1759 34.9802 16.2047 34.1654 17.9958C32.3334 22.0237 27.7632 24.4439 23.6763 23.5502C20.6858 22.8963 18.1832 20.9082 16.8432 18.1213C16.1844 16.7517 16.1192 16.3831 16.1192 14.0335C16.1192 11.178 16.2898 11.4768 14.4445 11.101C13.7424 10.958 13.4727 12.0843 13.6049 14.6088C13.7402 17.1957 14.3825 19.2004 15.5973 20.827C16.8814 22.5468 16.888 22.5837 15.834 22.1379C13.0206 20.9476 8.2907 17.6188 6.02933 15.2375L4.79885 13.9416L6.72135 12.083C8.98493 9.89469 12.6616 7.33531 15.3832 6.05348L17.3229 5.13972L18.1003 6.00456L18.878 6.86965L19.4649 6.38492C20.2893 5.70424 22.2219 4.73503 23.3165 4.45302C24.6181 4.11783 27.4704 4.32883 28.8635 4.86324ZM37.8246 7.25552C40.0987 8.57799 43.3432 11.0762 44.903 12.7057L46.1244 13.9815L44.903 15.2573C42.6335 17.6283 37.8996 20.9567 35.1325 22.1273L34.2119 22.5167L35.308 20.8505C36.9352 18.377 37.2861 17.126 37.2694 13.8561C37.2536 10.7385 36.7676 9.0419 35.3444 7.1361C34.0603 5.41621 34.0536 5.37933 35.1077 5.82517C35.6277 6.0452 36.8503 6.68875 37.8246 7.25552ZM25.1017 7.36843C23.3227 7.63989 22.8145 7.81728 21.917 8.47989L20.8888 9.2391L22.4055 10.9831C23.2395 11.9422 23.8274 12.7268 23.712 12.7268C23.5966 12.7265 22.5684 12.5589 21.4272 12.354C20.2859 12.1492 19.2892 12.0464 19.2124 12.1251C19.1354 12.2039 19.0768 13.0773 19.082 14.0658C19.0938 16.2602 19.6455 17.4737 21.3113 18.9686C22.6088 20.133 23.8897 20.5871 25.7669 20.548C27.38 20.5146 28.4614 20.0565 29.7681 18.8527C31.351 17.3947 31.858 16.2132 31.858 13.9815C31.858 12.5379 31.7344 11.8622 31.3277 11.0792C30.8104 10.0829 29.2956 8.50272 28.3787 8.00244C27.8474 7.7124 25.6429 7.28613 25.1017 7.36843Z" fill="#8BD7D0"/>
</svg>
