<svg width="117" height="45" viewBox="0 0 117 45" fill="none" xmlns="http://www.w3.org/2000/svg">
<path d="M17.5885 26.4427C20.0061 26.4427 21.966 24.4815 21.966 22.0622C21.966 19.6429 20.0061 17.6816 17.5885 17.6816C15.1708 17.6816 13.2109 19.6429 13.2109 22.0622C13.2109 24.4815 15.1708 26.4427 17.5885 26.4427Z" fill="#F5F5F5"/>
<path d="M75.6119 8.76106C78.0296 8.76106 79.9895 6.79983 79.9895 4.38053C79.9895 1.96123 78.0296 0 75.6119 0C73.1943 0 71.2344 1.96123 71.2344 4.38053C71.2344 6.79983 73.1943 8.76106 75.6119 8.76106Z" fill="#F5F5F5"/>
<path d="M112.624 45.0003C115.041 45.0003 117.001 43.0391 117.001 40.6198C117.001 38.2005 115.041 36.2393 112.624 36.2393C110.206 36.2393 108.246 38.2005 108.246 40.6198C108.246 43.0391 110.206 45.0003 112.624 45.0003Z" fill="#F5F5F5"/>
<path d="M30.8024 45H30.5636C28.335 45 26.584 43.2478 26.584 41.0177V3.9823C26.584 1.75221 28.335 0 30.5636 0H30.8024C33.0309 0 34.7819 1.75221 34.7819 3.9823V41.0177C34.7819 43.1681 32.9513 45 30.8024 45Z" fill="#F5F5F5"/>
<path d="M4.21837 45H3.97959C1.75102 45 0 43.2478 0 41.0177V3.9823C0 1.75221 1.75102 0 3.97959 0H4.21837C6.44694 0 8.19796 1.75221 8.19796 3.9823V41.0177C8.19796 43.1681 6.44694 45 4.21837 45Z" fill="#F5F5F5"/>
<path d="M95.0328 45H94.794C92.5655 45 90.8145 43.2478 90.8145 41.0177V3.9823C90.8145 1.75221 92.5655 0 94.794 0H95.0328C97.2614 0 99.0124 1.75221 99.0124 3.9823V41.0177C99.0124 43.1681 97.2614 45 95.0328 45Z" fill="#F5F5F5"/>
<path d="M62.6396 44.9204H62.4009C60.1723 44.9204 58.4213 43.1681 58.4213 40.9381V7.08849H47.0396C47.0396 7.08849 43.6172 7.16814 43.6172 3.58407C43.6172 0 46.7213 0 46.7213 0H62.6396C64.8682 0 66.6192 1.75221 66.6192 3.9823V41.0177C66.6192 43.1681 64.8682 44.9204 62.6396 44.9204Z" fill="#F5F5F5"/>
</svg>
